<svg width="156" height="156" viewBox="0 0 156 156" fill="none" xmlns="http://www.w3.org/2000/svg">
<path d="M109.749 127.469C107.89 128.113 105.998 128.714 104.083 129.289C72.8549 138.656 38.9266 139.626 16.9108 111.535C5.51221 96.9707 6.18769 77.5005 22.8985 67.5462C29.9748 63.3299 38.2458 61.5622 46.4323 60.6622C52.0732 60.0424 58.2495 59.5968 62.3814 55.7075C65.36 52.9032 66.6822 48.8216 68.0475 44.9664C74.3639 27.1417 85.6637 13.2101 104.36 7.72184C118.521 3.563 135.661 6.09064 143.819 19.6522C146.859 24.7039 148.036 30.97 146.471 36.6559C144.719 43.019 139.899 47.9844 135.591 52.9858C130.727 58.6375 125.337 66.2761 127.901 74.1375C130.845 83.1738 144.401 83.7828 144.396 93.6005C144.396 96.9851 143.104 100.247 141.513 103.226C134.528 116.322 122.926 122.915 109.749 127.469V127.469Z" stroke="#523264"/>
<path d="M74.222 56.9939C74.222 56.9939 57.5813 61.1761 61.467 81.3163C65.3528 101.457 101.546 103.673 102.486 110.117C103.426 116.561 105.977 118.643 105.977 118.643C105.977 118.643 109.467 109.58 109.065 104.881C108.662 100.181 93.8251 91.991 92.7509 88.6352C91.6766 85.2794 102.163 61.6467 102.163 61.6467C102.163 61.6467 82.0008 50.3289 74.222 56.9939Z" fill="#66045A"/>
<path opacity="0.87" d="M106.535 101.927C107.193 102.849 107.793 103.133 108.296 102.966C105.166 98.2104 93.6994 91.5635 92.7598 88.6352C92.5478 87.9687 92.7886 86.5064 93.3113 84.5913C87.9417 81.187 83.7469 76.897 86.5171 70.7765C90.4172 62.1534 94.4701 59.473 94.1629 57.9299C92.0356 57.0869 89.8569 56.38 87.6399 55.8136C84.3326 55.6232 79.7857 55.7561 75.4544 56.1478C75.016 56.3901 74.6031 56.676 74.222 57.0011C74.222 57.0011 69.659 58.149 65.8738 62.1282C67.311 62.9402 70.5716 64.4169 74.2256 63.5492C79.1354 62.3851 67.7888 71.4537 73.6974 79.7067C79.606 87.9597 69.8027 91.3209 81.7528 96.5559C93.703 101.791 103.659 97.8996 106.535 101.927Z" fill="#490244"/>
<path fill-rule="evenodd" clip-rule="evenodd" d="M74.222 56.9939C74.222 56.9939 57.5813 61.1761 61.467 81.3163C65.3528 101.457 101.546 103.673 102.486 110.117C103.426 116.561 105.977 118.643 105.977 118.643C105.977 118.643 109.467 109.58 109.065 104.881C108.662 100.181 93.8252 91.991 92.7509 88.6352C91.6766 85.2794 102.163 61.6467 102.163 61.6467C102.163 61.6467 82.0008 50.3289 74.222 56.9939V56.9939Z" stroke="#141414" stroke-width="0.5"/>
<path d="M86.9537 23.9836C86.9537 23.9836 79.2702 27.3197 78.1923 35.6607C77.7141 39.49 76.3155 43.1465 74.1161 46.3174C75.9701 48.1588 78.1492 51.0601 78.3396 54.6405L78.724 54.4357C92.9396 46.7432 86.9537 23.9836 86.9537 23.9836Z" fill="white"/>
<path d="M83.7632 36.5913C84.0326 42.4101 79.9726 49.0966 78.2318 46.7845C76.3114 44.2335 75.5874 45.8414 74.4125 45.8863C74.3155 46.0336 74.2167 46.1809 74.1161 46.3246C75.9593 48.1552 78.1222 51.035 78.3342 54.5884C78.4671 54.5489 78.5973 54.5009 78.724 54.4447C79.0456 54.265 79.3528 54.0854 79.6528 53.9057C83.7955 50.8751 86.8926 40.5849 83.7632 36.5913V36.5913Z" fill="#C7DEF9"/>
<path fill-rule="evenodd" clip-rule="evenodd" d="M86.9537 23.9836C86.9537 23.9836 79.2702 27.3197 78.1923 35.6607C77.7141 39.49 76.3155 43.1465 74.1161 46.3174C75.9701 48.1588 78.1492 51.0601 78.3396 54.6405L78.724 54.4357C92.9396 46.7432 86.9537 23.9836 86.9537 23.9836Z" stroke="#141414" stroke-width="0.5"/>
<path d="M74.116 46.3228C70.3434 51.7266 64.7833 54.7662 60.3568 54.8901C59.3813 54.8901 64.4187 62.0042 78.3395 54.6458C78.1491 51.0654 75.97 48.1641 74.116 46.3228V46.3228Z" fill="#F4A187"/>
<path opacity="0.61" d="M74.1161 46.3228C74.0586 46.4054 73.9993 46.4862 73.9364 46.5671C74.4951 47.8695 76.6563 54.044 68.9297 56.9866C67.9605 57.3617 66.9687 57.6756 65.9601 57.9262C68.856 58.1723 72.9232 57.4986 78.336 54.6386C78.1492 51.0654 75.97 48.1641 74.1161 46.3228Z" fill="#F9724E"/>
<path fill-rule="evenodd" clip-rule="evenodd" d="M74.116 46.3228C70.3434 51.7265 64.7833 54.7662 60.3568 54.8901C59.3813 54.8901 64.4187 62.0042 78.3395 54.6458C78.1491 51.0654 75.97 48.1641 74.116 46.3228V46.3228Z" stroke="#141414" stroke-width="0.27456"/>
<path d="M106.454 113.056C99.3888 93.942 113.035 78.3629 113.035 78.3629C114.244 60.9749 94.506 57.752 89.5369 58.8622C84.5679 59.9724 72.0824 82.4589 81.884 105.822C85.8632 115.304 91.3011 120.961 96.351 124.468C102.603 121.532 105.454 115.679 106.454 113.056Z" fill="#A50C60"/>
<path opacity="0.4" d="M101.095 60.5365C96.4031 58.7005 91.6442 58.3915 89.5369 58.8622C89.2861 58.9226 89.0444 59.0163 88.8184 59.1406C91.6388 60.3479 103.136 65.9403 103.549 77.0874C103.4 87.0237 90.7783 82.5056 91.3155 91.567C91.8526 100.628 108.648 110.987 92.2388 121.16C95.9953 121.378 103.991 120.03 105.763 111.01C100.341 92.8425 113.022 78.3629 113.022 78.3629C113.169 76.471 113.031 74.5678 112.614 72.7166C110.033 68.2721 105.741 63.4863 101.095 60.5365Z" fill="#66045A"/>
<path fill-rule="evenodd" clip-rule="evenodd" d="M106.454 113.056C99.3888 93.942 113.035 78.3629 113.035 78.3629C114.244 60.9749 94.506 57.752 89.5369 58.8622C84.5679 59.9724 72.0824 82.4589 81.884 105.822C85.8632 115.304 91.3011 120.961 96.351 124.468C102.603 121.532 105.454 115.679 106.454 113.056V113.056Z" stroke="#141414" stroke-width="0.5"/>
<path d="M83.6302 36.8069C86.986 45.6689 78.8085 57.3316 68.9279 57.8688C85.7788 59.4137 97.0517 53.9938 113.03 78.3629C115.043 75.0736 125.316 62.5198 120.634 44.7958C116.538 29.2886 99.7374 15.9947 86.9483 23.9837" fill="white"/>
<path d="M89.0375 59.0347C96.7623 60.4934 104.175 64.8427 113.038 78.3612C115.052 75.0718 125.324 62.5181 120.643 44.7941C120.283 43.4404 119.834 42.1122 119.297 40.8185C110.888 33.6451 100.434 31.8361 100.817 34.6224C100.817 34.6224 109.323 39.0435 104.669 45.6671C101.983 48.7104 87.8967 48.9475 91.4214 54.8902C95.088 57.5742 91.5795 58.6179 89.0375 59.0347H89.0375Z" fill="#C7DEF9"/>
<path d="M83.6302 36.8069C86.986 45.6689 78.8085 57.3316 68.9279 57.8688C85.7788 59.4137 97.0517 53.9938 113.03 78.3629C115.043 75.0736 125.316 62.5198 120.634 44.7958C116.538 29.2886 99.7374 15.9947 86.9483 23.9837" stroke="#141414" stroke-width="0.5"/>
<path d="M106.623 42.6131C95.9827 48.2863 86.0554 45.6958 85.1499 46.5024C84.2445 47.309 88.1285 48.0851 86.2135 48.8576C84.2984 49.6301 82.4211 50.7709 82.7229 51.1068C83.0247 51.4427 86.2817 50.4349 86.2817 50.4349C86.2817 50.4349 82.2217 52.8853 82.5217 53.3883C82.8217 53.8913 87.2518 51.6817 87.2518 51.6817C87.2518 51.6817 83.9661 54.362 84.6362 54.556C85.3062 54.75 87.9596 52.4757 87.9596 52.4757C87.9596 52.4757 86.6177 53.7512 86.6177 54.389C87.4566 55.0267 88.8669 52.844 89.3591 52.9518C104.809 57.2759 115.967 53.8033 121.23 47.6342C116.2 42.4244 111.149 41.5118 108.116 41.5406C107.676 41.9715 107.172 42.3331 106.623 42.6131Z" fill="#F4A187"/>
<path d="M78.3396 53.7349C78.3396 53.7349 107.024 51.448 116.206 73.4315" stroke="#141414" stroke-width="0.5"/>
<path d="M100.813 34.6241C105.484 35.1055 111.007 38.6159 108.111 41.5531C111.149 41.5243 116.195 42.4513 121.225 47.6467C126.203 41.81 125.896 33.5588 118.938 27.2064C104.62 14.1353 91.7754 21.9482 91.7754 21.9482" fill="white"/>
<path opacity="0.83" d="M118.943 27.2065C108.65 17.8146 99.1194 19.205 94.5725 20.7392C97.5295 19.9775 101.794 19.7063 106.097 22.2896C113.885 26.9604 107.547 31.0923 113.089 32.2492C116.301 32.9229 118.703 38.5369 115.846 43.5293C117.85 44.6132 119.669 46.0078 121.236 47.6612C126.208 41.8101 125.905 33.5589 118.943 27.2065Z" fill="#C7DEF9"/>
<path opacity="0.61" d="M121.23 47.6468C119.663 45.9934 117.844 44.5988 115.841 43.5149C113.771 47.1366 108.939 50.4349 99.6475 51.3008C91.5023 51.0313 89.9986 49.5331 87.2518 51.6691C87.2518 51.6691 83.9624 54.3548 84.6325 54.556C85.3026 54.7572 87.956 52.4757 87.956 52.4757C87.956 52.4757 86.614 53.7512 86.614 54.389C87.453 55.0267 88.8632 52.844 89.3555 52.9518C104.803 57.2885 115.967 53.8159 121.23 47.6468Z" fill="#F9724E"/>
<path d="M100.813 34.6241C105.484 35.1055 111.007 38.6159 108.111 41.5531C111.149 41.5243 116.195 42.4513 121.225 47.6467C126.203 41.81 125.896 33.5588 118.938 27.2064C104.62 14.1353 91.7754 21.9482 91.7754 21.9482" stroke="#141414" stroke-width="0.5"/>
<path fill-rule="evenodd" clip-rule="evenodd" d="M106.623 42.6131C95.9827 48.2863 86.0554 45.6958 85.1499 46.5024C84.2445 47.309 88.1285 48.0851 86.2135 48.8576C84.2984 49.6301 82.4211 50.7709 82.7229 51.1068C83.0247 51.4427 86.2817 50.4349 86.2817 50.4349C86.2817 50.4349 82.2217 52.8853 82.5217 53.3883C82.8217 53.8913 87.2518 51.6817 87.2518 51.6817C87.2518 51.6817 83.9661 54.362 84.6362 54.556C85.3062 54.75 87.9596 52.4757 87.9596 52.4757C87.9596 52.4757 86.6177 53.7512 86.6177 54.389C87.4566 55.0267 88.8669 52.844 89.3591 52.9518C104.809 57.2759 115.967 53.8033 121.23 47.6342C116.2 42.4244 111.149 41.5118 108.116 41.5406C107.676 41.9715 107.172 42.3331 106.623 42.6131V42.6131Z" stroke="#141414" stroke-width="0.5"/>
<path d="M80.9444 13.4436C80.9444 13.4436 80.2725 26.468 86.9536 23.9835C87.6237 27.7777 89.8836 32.1413 92.5694 31.7712C95.2551 31.4012 94.3658 20.2235 86.1811 10.9591C82.4211 8.44222 80.9444 13.4436 80.9444 13.4436Z" fill="#F4A187" stroke="#141414" stroke-width="0.5"/>
<path d="M83.763 56.9813L63.4898 53.9938L54.7607 58.6251C54.7607 58.6251 71.7284 59.4317 74.222 59.297C76.7155 59.1622 83.763 56.9813 83.763 56.9813Z" fill="#1E45C1" stroke="#141414" stroke-width="0.27456"/>
<path d="M81.0342 15.4126C76.7784 18.163 71.1878 13.9754 71.5003 9.99802C71.8129 6.02062 79.0204 10.4453 80.2276 9.23631C81.4348 8.02729 77.3856 6.60807 77.9102 4.62656C78.4347 2.64505 84.9703 2.97021 87.9237 8.43149C88.822 7.26738 92.2658 6.238 91.1915 10.2513C90.6526 12.249 89.7921 16.248 90.8951 17.845C88.6405 14.2521 87.7908 15.1898 88.4609 16.3072C88.689 16.5318 89.5873 19.2175 89.0483 19.0828C88.5094 18.9481 85.4643 12.549 81.0342 15.4126Z" fill="#F43838"/>
<path d="M90.8969 17.8451C89.7939 16.248 90.658 12.2491 91.1933 10.2514C92.2712 6.23806 88.822 7.26744 87.9256 8.43156C85.2758 3.53616 79.7408 2.76727 78.2551 4.09487C79.8612 4.09487 84.5194 4.52602 86.2476 9.125C86.9662 11.676 88.531 8.99026 89.0681 10.1544C89.6053 11.3185 89.4076 14.3833 87.4315 13.8012C85.4554 13.2192 81.5139 14.1605 80.6606 15.6372C80.7882 15.5672 80.9139 15.4935 81.0397 15.4127C85.4644 12.5491 88.5094 18.9481 89.0483 19.0829C89.5873 19.2176 88.6891 16.5319 88.4663 16.3073C87.7908 15.1899 88.6423 14.2485 90.8969 17.8451Z" fill="#C91F1F"/>
<path fill-rule="evenodd" clip-rule="evenodd" d="M81.0342 15.4126C76.7784 18.163 71.1878 13.9754 71.5003 9.99802C71.8129 6.02062 79.0204 10.4453 80.2276 9.23631C81.4349 8.02729 77.3856 6.60807 77.9102 4.62656C78.4347 2.64505 84.9703 2.97021 87.9237 8.43149C88.822 7.26738 92.2658 6.238 91.1915 10.2513C90.6526 12.249 89.7921 16.248 90.8951 17.845C88.6405 14.2521 87.7908 15.1898 88.4609 16.3072C88.689 16.5318 89.5873 19.2175 89.0483 19.0828C88.5094 18.9481 85.4643 12.549 81.0342 15.4126Z" stroke="#141414" stroke-width="0.5"/>
<path d="M74.222 58.6251C74.222 58.6251 59.9311 61.1096 54.7608 58.6251C47.7797 52.8512 43.1466 40.301 43.1466 40.301C43.1466 40.301 62.0797 35.0643 63.0192 35.7362C68.0547 51.7104 74.222 58.6251 74.222 58.6251Z" fill="#21C3E8"/>
<path d="M55.0356 58.7489C55.1398 58.792 55.2476 58.8351 55.359 58.8746C58.3915 59.2339 61.9125 59.525 65.1606 59.6381C68.1965 59.457 71.221 59.1188 74.222 58.6249C74.222 58.6249 68.0547 51.7103 63.0192 35.7325C62.7066 35.5097 60.3981 35.9409 57.4591 36.6163C58.7166 36.7636 61.4904 37.5451 61.5425 41.5512C61.6089 46.7431 61.1401 48.5108 63.4216 49.9767C65.7031 51.4426 69.4937 56.7333 55.0356 58.7489Z" fill="#1B92C1"/>
<path fill-rule="evenodd" clip-rule="evenodd" d="M74.222 58.6251C74.222 58.6251 59.9311 61.1096 54.7608 58.6251C47.7797 52.8512 43.1466 40.301 43.1466 40.301C43.1466 40.301 62.0797 35.0643 63.0192 35.7362C68.0547 51.7104 74.222 58.6251 74.222 58.6251Z" stroke="#141414" stroke-width="0.5"/>
<path d="M84.2086 58.4022C70.3183 62.2108 54.7931 60.1987 54.7931 60.1987L54.7069 58.7921C54.7069 58.7921 73.3364 59.87 84.1242 56.9956C84.5032 57.4483 84.1853 57.9998 84.2086 58.4022Z" fill="#21C3E8" stroke="#141414" stroke-width="0.5"/>
<path d="M113.324 124.694C110.053 120.742 107.85 116.829 106.454 113.056C105.454 115.679 102.603 121.532 96.3511 124.468C103.332 129.318 109.566 130.064 110.166 131.14C110.766 132.216 113.628 128.359 113.324 124.694Z" fill="#F4A187"/>
<path fill-rule="evenodd" clip-rule="evenodd" d="M113.324 124.694C110.053 120.742 107.85 116.829 106.454 113.056C105.454 115.679 102.603 121.532 96.3511 124.468C103.332 129.318 109.566 130.064 110.166 131.14C110.766 132.216 113.628 128.359 113.324 124.694Z" stroke="#141414" stroke-width="0.5"/>
<path opacity="0.61" d="M106.454 113.056C105.475 115.624 102.723 121.281 96.7534 124.274C99.132 124.665 102.931 124.795 104.45 122.098C106.699 118.097 112.667 123.524 110.322 131.012C110.98 130.43 113.597 127.902 113.331 124.694C110.053 120.738 107.85 116.829 106.454 113.056Z" fill="#F9724E"/>
<path d="M99.1606 67.8679C99.1606 67.8679 96.8252 71.3585 98.3989 73.9544C99.9726 76.5503 103.562 74.8939 103.562 74.8939" stroke="#141414" stroke-width="0.5" stroke-linecap="round"/>
<path d="M111.666 145.301C112.744 145.301 118.672 130.662 114.646 126.23C114.186 125.718 113.748 125.204 113.324 124.694C113.628 128.359 110.168 131.138 110.168 131.138C110.204 131.195 110.221 131.262 110.218 131.33C110.083 133.346 110.592 145.301 111.666 145.301Z" fill="#D63229"/>
<path d="M114.646 126.235C114.186 125.723 113.748 125.21 113.324 124.699C113.47 126.454 112.751 128.007 111.964 129.147C112.916 129.819 114.806 132.009 113.581 138.455C112.862 140.665 111.682 142.269 110.994 143.516C111.188 144.606 111.414 145.312 111.675 145.312C112.738 145.301 118.674 130.662 114.646 126.235Z" fill="#AF221E"/>
<path fill-rule="evenodd" clip-rule="evenodd" d="M111.666 145.301C112.744 145.301 118.672 130.662 114.646 126.23C114.186 125.718 113.748 125.204 113.324 124.694C113.628 128.359 110.168 131.138 110.168 131.138C110.204 131.195 110.221 131.262 110.218 131.33C110.083 133.346 110.592 145.301 111.666 145.301V145.301Z" stroke="#141414" stroke-width="0.5"/>
<path d="M105.281 109.169C105.281 109.169 103.099 118.306 92.2514 121.158C91.1484 121.864 93.2952 124.987 96.351 124.466C99.4068 123.945 105.314 118.14 106.454 113.055C106.859 110.723 105.615 108.556 105.281 109.169Z" fill="#D1208A"/>
<path opacity="0.77" d="M105.281 109.169C105.281 109.169 104.527 112.316 101.713 115.492C102.488 115.712 103.165 117.501 101.958 118.877C100.521 120.503 94.8114 123.586 93.4174 123.832C94.2768 124.414 95.3279 124.641 96.351 124.466C99.405 123.947 105.314 118.14 106.454 113.055C106.859 110.723 105.615 108.556 105.281 109.169Z" fill="#A50C60"/>
<path fill-rule="evenodd" clip-rule="evenodd" d="M105.281 109.169C105.281 109.169 103.099 118.306 92.2514 121.158C91.1484 121.864 93.2952 124.987 96.351 124.466C99.4068 123.945 105.314 118.14 106.454 113.055C106.859 110.723 105.615 108.556 105.281 109.169Z" stroke="#141414" stroke-width="0.5"/>
<path d="M93.9275 21.0229C93.9275 21.0229 98.0414 30.9197 93.3885 33.6396C88.7357 36.3595 85.6763 24.2836 85.6763 24.2836" stroke="#141414" stroke-width="0.5"/>
<path d="M59.2288 52.955C60.3964 52.4235 60.5706 50.2965 59.618 48.2043C58.6654 46.1121 56.9467 44.8469 55.7792 45.3785C54.6116 45.9101 54.4374 48.0371 55.39 50.1293C56.3426 52.2215 58.0613 53.4866 59.2288 52.955Z" fill="white" stroke="#141414" stroke-width="0.5"/>
<path d="M108.772 133.924C108.772 133.924 110.531 131.948 112.228 133.051" stroke="#141414" stroke-width="0.2" stroke-linecap="round"/>
<path d="M108.772 135.604C108.772 135.604 110.531 133.628 112.228 134.731" stroke="#141414" stroke-width="0.2" stroke-linecap="round"/>
<path d="M108.772 137.282C108.772 137.282 110.531 135.306 112.228 136.409" stroke="#141414" stroke-width="0.2" stroke-linecap="round"/>
<path d="M110.394 132.138C110.435 131.958 109.843 131.669 109.071 131.493C108.299 131.317 107.64 131.32 107.599 131.5C107.558 131.68 108.151 131.969 108.922 132.145C109.694 132.321 110.353 132.318 110.394 132.138Z" fill="white" stroke="#141414" stroke-width="0.2" stroke-linecap="round"/>
<path d="M111.646 131.442C112.217 130.894 112.577 130.342 112.449 130.209C112.321 130.076 111.755 130.412 111.183 130.96C110.612 131.508 110.252 132.06 110.38 132.194C110.508 132.327 111.074 131.99 111.646 131.442Z" fill="white" stroke="#141414" stroke-width="0.2" stroke-linecap="round"/>
<path d="M86.9536 23.9835L86.9048 23.8962L86.5696 24.0835H86.878L86.8955 24.145C86.9202 24.2315 86.9562 24.3564 87.0014 24.5104C87.0919 24.8183 87.2193 25.2427 87.3671 25.7085C87.662 26.6379 88.0404 27.7396 88.3693 28.4075L88.5488 28.3193C88.4608 28.1399 88.472 27.8545 88.5665 27.4622C88.6596 27.076 88.8261 26.6129 89.0175 26.0949C89.038 26.0393 89.0588 25.9831 89.0799 25.9263C89.4486 24.9308 89.8823 23.7599 90.0225 22.6105L90.0225 22.6105L90.0227 22.6083C90.0348 22.4863 89.9752 22.3684 89.8697 22.3058C89.7643 22.2432 89.6322 22.2473 89.5309 22.3164L89.5309 22.3164L89.53 22.317C89.1286 22.5974 88.4735 22.9916 87.9162 23.3171C87.638 23.4796 87.3851 23.6244 87.2018 23.7286C87.1101 23.7807 87.0358 23.8226 86.9845 23.8515L86.9254 23.8847L86.91 23.8933L86.9061 23.8955L86.9052 23.896L86.9049 23.8962L86.9049 23.8962L86.9536 23.9835Z" fill="#141414" stroke="#141414" stroke-width="0.2" stroke-linecap="round"/>
<path d="M82.3331 17.651C82.3331 17.651 82.4463 19.3074 82.1534 20.5828C82.6223 21.2529 83.8978 20.3367 83.8978 20.3367" fill="#F4A187"/>
<path d="M82.3331 17.651C82.3331 17.651 82.4463 19.3074 82.1534 20.5828C82.6223 21.2529 83.8978 20.3367 83.8978 20.3367" stroke="#141414" stroke-width="0.2" stroke-linecap="round"/>
<path d="M83.9391 21.5098C83.8652 21.5466 83.8119 21.6148 83.7941 21.6954C83.7763 21.776 83.796 21.8603 83.8475 21.9248C84.2713 22.4313 84.9875 22.5801 85.578 22.2845C86.1684 21.9888 86.4783 21.3261 86.3266 20.6834C86.3074 20.6031 86.2525 20.5359 86.1777 20.501C86.1029 20.466 86.0162 20.467 85.9422 20.5038C85.4554 20.7481 84.4278 21.2637 83.9391 21.5098Z" fill="#141414" stroke="#141414" stroke-width="0.156" stroke-linecap="round"/>
<path d="M84.5499 17.3864C85.2574 17.1435 85.7568 16.7305 85.6653 16.464C85.5738 16.1975 84.9261 16.1784 84.2185 16.4213C83.511 16.6643 83.0116 17.0772 83.1031 17.3438C83.1946 17.6103 83.8423 17.6294 84.5499 17.3864Z" fill="white" stroke="#191919" stroke-width="0.2"/>
<path d="M85.1356 17.1102C85.0331 16.8182 84.7351 16.6424 84.4299 16.6938C84.1246 16.7453 83.9008 17.0091 83.8997 17.3186C83.9002 17.3891 83.913 17.459 83.9374 17.5252C84.1458 17.4955 84.3509 17.4461 84.55 17.3779C84.7536 17.3084 84.9498 17.2187 85.1356 17.1102Z" fill="#191919"/>
<path d="M80.3189 18.8071C81.0265 18.5641 81.5259 18.1512 81.4344 17.8847C81.3429 17.6181 80.6951 17.599 79.9875 17.842C79.28 18.0849 78.7806 18.4979 78.8721 18.7644C78.9636 19.0309 79.6114 19.05 80.3189 18.8071Z" fill="white" stroke="#191919" stroke-width="0.2"/>
<path d="M80.9049 18.5331C80.8024 18.241 80.5044 18.0652 80.1992 18.1167C79.8939 18.1682 79.6701 18.4319 79.6689 18.7415C79.6698 18.8118 79.6819 18.8816 79.7049 18.9481C79.9131 18.9201 80.1182 18.8726 80.3175 18.8061C80.5219 18.735 80.7187 18.6435 80.9049 18.5331Z" fill="#191919"/>
<path d="M74.116 9.24712C74.116 9.24712 72.0824 9.107 72.0824 10.2514C72.0824 11.3957 74.0962 13.3772 73.7944 12.1017C73.4926 10.8262 73.0597 9.98547 73.9579 10.0537C74.8562 10.122 74.4969 9.24892 74.116 9.24712Z" fill="white"/>
<path d="M74.5273 13.0412C74.5273 13.0412 74.9028 12.2687 75.4058 13.0412C75.9088 13.8137 74.4968 13.9143 74.5273 13.0412Z" fill="white"/>
<path d="M78.8605 4.78284C78.8605 4.78284 78.1186 5.15291 78.8605 5.86072C79.6025 6.56853 79.4965 5.08464 78.8605 4.78284Z" fill="white"/>
<path d="M87.9254 47.7007C87.9254 47.7007 91.8202 46.8473 92.5586 47.7007C93.2969 48.554 89.6051 47.8803 90.2429 48.8235C90.8806 49.7666 87.523 49.869 87.9254 47.7007Z" fill="white"/>
<path d="M91.7753 49.4595C91.7753 49.4595 92.9556 49.1595 92.6574 50.3002C92.3592 51.441 90.2537 50.2302 91.7753 49.4595Z" fill="white"/>
<path d="M46.0335 43.9227C45.9437 43.743 44.2891 41.5064 45.3634 41.0357C46.4377 40.5651 48.854 39.6255 48.9205 40.2974C48.9869 40.9693 46.3569 40.6675 46.9677 41.9933C47.5785 43.3191 46.9874 45.818 46.0335 43.9227Z" fill="white"/>
<path d="M47.37 45.5845C47.37 45.5845 47.909 44.6862 48.5773 46.3228C49.2455 47.9594 46.8401 46.4719 47.37 45.5845Z" fill="white"/>
<path d="M87.7243 66.1451C87.7243 66.1451 80.7431 73.8699 81.7492 82.996C82.7552 92.1221 83.9588 73.6633 87.0829 70.7099C90.207 67.7565 89.5369 63.7468 87.7243 66.1451Z" fill="white"/>
<path d="M82.4876 87.8285C82.4876 87.8285 80.8708 87.9614 81.2804 91.2526C81.6899 94.5437 83.6301 93.1317 82.4876 87.8285Z" fill="white"/>
<path d="M93.2233 122.033C93.2233 122.033 96.6366 120.037 96.7462 121.18C96.8557 122.323 93.2826 124.351 93.2233 122.033Z" fill="white"/>
<path d="M64.2281 67.8679C64.2281 67.8679 61.0052 72.3878 62.6832 78.3629C64.3611 84.338 63.0856 72.0609 65.0329 72.1579C66.9803 72.2549 66.3084 63.9516 64.2281 67.8679Z" fill="white"/>
<path d="M64.9756 76.7515C64.9756 76.7515 65.2433 73.9328 66.7882 74.5364C68.3332 75.14 65.4355 77.691 64.9756 76.7515Z" fill="white"/>
<path d="M82.8434 96.0869C82.8434 96.0869 83.0518 105.019 88.1951 112.737" stroke="white" stroke-width="0.156"/>
<path d="M63.691 82.7264C63.691 82.7264 65.7049 89.7417 72.8872 93.0149" stroke="white" stroke-width="0.156"/>
<path d="M94.5725 47.3216C94.5725 47.3216 103.165 46.612 107.195 43.5221" stroke="white" stroke-width="0.156"/>
<path d="M81.4439 8.24109C81.4439 8.24109 82.0852 10.3555 79.8361 10.422" stroke="white" stroke-width="0.156"/>
<path d="M50.8678 40.0638C50.8678 40.0638 60.2274 36.8733 60.8849 37.5487" stroke="white" stroke-width="0.156"/>
<path d="M125.353 52.5798C125.353 52.5798 126.891 65.5019 115.352 81.4761" stroke="#141414" stroke-width="0.2"/>
<path d="M58.6879 84.4727C58.6879 84.4727 61.1706 92.2604 67.2319 96.0869" stroke="#141414" stroke-width="0.2"/>
<path d="M41.4686 39.3147C41.4686 39.3147 43.4322 45.5718 45.0023 47.7006" stroke="#141414" stroke-width="0.2"/>
<path d="M116.031 124.468C116.031 124.468 118.674 129.663 117.063 134.391" stroke="#141414" stroke-width="0.2"/>
<path d="M102.366 152.105C118.759 152.105 132.049 151.29 132.049 150.285C132.049 149.28 118.759 148.465 102.366 148.465C85.9721 148.465 72.6825 149.28 72.6825 150.285C72.6825 151.29 85.9721 152.105 102.366 152.105Z" fill="#2F1238"/>
</svg>
